<?xml version="1.0" encoding="utf-8"?>
<!-- Generator: Adobe Illustrator 25.1.0, SVG Export Plug-In . SVG Version: 6.00 Build 0)  -->
<svg version="1.1" id="Layer_1" xmlns="http://www.w3.org/2000/svg" xmlns:xlink="http://www.w3.org/1999/xlink" x="0px" y="0px"
	 viewBox="0 0 93 79" style="enable-background:new 0 0 93 79;" xml:space="preserve">
<g>
	<path d="M39.2,76.1c-15.1,0-27.4-12.5-27.4-27.8c0-15.3,12.3-27.8,27.4-27.8c0.5,0,0.9,0,1.4,0c0-0.2,0-0.4,0-0.6
		C40.6,9.7,49,1.4,59.2,1.4c10.2,0,18.6,8.3,18.6,18.6c0,8.2-5.4,15.4-13.2,17.8c1.4,3.4,2.1,6.9,2.1,10.6
		C66.6,63.7,54.3,76.1,39.2,76.1z M65.6,48.3C65.6,48.3,65.6,48.3,65.6,48.3C65.6,48.3,65.6,48.3,65.6,48.3z M65.6,48.3
		C65.6,48.3,65.6,48.3,65.6,48.3C65.6,48.3,65.6,48.3,65.6,48.3z M65.6,48.3C65.6,48.3,65.6,48.3,65.6,48.3
		C65.6,48.3,65.6,48.3,65.6,48.3z M65.6,48.3C65.6,48.3,65.6,48.3,65.6,48.3C65.6,48.3,65.6,48.3,65.6,48.3z M65.6,48.3
		C65.6,48.3,65.6,48.3,65.6,48.3C65.6,48.3,65.6,48.3,65.6,48.3z M65.6,48.3C65.6,48.3,65.6,48.3,65.6,48.3
		C65.6,48.3,65.6,48.3,65.6,48.3z M65.6,48.3C65.6,48.3,65.6,48.3,65.6,48.3C65.6,48.3,65.6,48.3,65.6,48.3z M65.6,48.2
		C65.6,48.2,65.6,48.2,65.6,48.2C65.6,48.2,65.6,48.2,65.6,48.2z M65.6,48.2L65.6,48.2L65.6,48.2z M65.6,48.2
		C65.6,48.2,65.6,48.2,65.6,48.2S65.6,48.2,65.6,48.2z M39.3,21.5C39.3,21.5,39.3,21.5,39.3,21.5S39.3,21.5,39.3,21.5z M39.2,21.5
		C39.2,21.5,39.2,21.5,39.2,21.5C39.2,21.5,39.2,21.5,39.2,21.5z M39.2,21.5C39.2,21.5,39.2,21.5,39.2,21.5
		C39.2,21.5,39.2,21.5,39.2,21.5z M41.6,20C41.6,20,41.6,20,41.6,20C41.6,20,41.6,20,41.6,20z M76.8,20C76.8,20,76.8,20,76.8,20
		C76.8,20,76.8,20,76.8,20z M41.6,20C41.6,20,41.6,20,41.6,20C41.6,20,41.6,20,41.6,20z"/>
</g>
</svg>
